<svg width="333" height="63" viewBox="0 0 333 63" fill="none" xmlns="http://www.w3.org/2000/svg">
  <path d="M54.8439 51.5644C52.0213 51.5644 49.5273 51.1777 47.3619 50.4044C45.1966 49.5924 43.1279 48.297 41.1559 46.5184C40.3439 45.8224 39.9379 45.0297 39.9379 44.1404C39.9379 43.4444 40.2086 42.8257 40.7499 42.2844C41.2913 41.7044 41.9293 41.4144 42.6639 41.4144C43.3213 41.4144 43.8819 41.627 44.3459 42.0524C45.8926 43.483 47.4779 44.5464 49.1019 45.2424C50.7646 45.8997 52.6399 46.2284 54.7279 46.2284C57.1639 46.2284 59.2133 45.6677 60.8759 44.5464C62.5773 43.425 63.4279 42.0137 63.4279 40.3124C63.3893 38.3017 62.5386 36.755 60.8759 35.6724C59.2519 34.551 56.7579 33.623 53.3939 32.8884C49.4113 32.0764 46.3373 30.7424 44.1719 28.8864C42.0453 27.0304 40.9819 24.459 40.9819 21.1724C40.9819 18.891 41.5813 16.8997 42.7799 15.1984C43.9786 13.4584 45.6413 12.1244 47.7679 11.1964C49.8946 10.2684 52.2919 9.80437 54.9599 9.80437C57.3573 9.80437 59.6193 10.191 61.7459 10.9644C63.8726 11.7377 65.5933 12.7624 66.9079 14.0384C67.7973 14.8117 68.2419 15.643 68.2419 16.5324C68.2419 17.2284 67.9713 17.847 67.4299 18.3884C66.9273 18.9297 66.3086 19.2004 65.5739 19.2004C65.0326 19.2004 64.5879 19.0457 64.2399 18.7364C63.2346 17.731 61.8426 16.8804 60.0639 16.1844C58.2853 15.4884 56.5839 15.1404 54.9599 15.1404C52.3693 15.1404 50.3006 15.6817 48.7539 16.7644C47.2459 17.8084 46.4919 19.2004 46.4919 20.9404C46.4919 22.835 47.2459 24.285 48.7539 25.2904C50.3006 26.2957 52.5819 27.1464 55.5979 27.8424C58.6139 28.4997 61.0693 29.273 62.9639 30.1624C64.8973 31.0517 66.3859 32.289 67.4299 33.8744C68.4739 35.4597 68.9959 37.5284 68.9959 40.0804C68.9959 42.323 68.3579 44.3144 67.0819 46.0544C65.8446 47.7944 64.1433 49.1477 61.9779 50.1144C59.8126 51.081 57.4346 51.5644 54.8439 51.5644Z" fill="white" />
  <path d="M80.2692 22.874C80.2692 23.8605 78.7916 24.6602 76.969 24.6602C75.1463 24.6602 73.6688 23.8605 73.6688 22.874C73.6688 21.8876 75.1463 21.0879 76.969 21.0879C78.7916 21.0879 80.2692 21.8876 80.2692 22.874Z" fill="#515151" />
  <path d="M85.5921 26.1006C85.5921 26.8961 84.4005 27.541 82.9306 27.541C81.4608 27.541 80.2692 26.8961 80.2692 26.1006C80.2692 25.3051 81.4608 24.6602 82.9306 24.6602C84.4005 24.6602 85.5921 25.3051 85.5921 26.1006Z" fill="#787878" />
  <path d="M88.9987 28.4629C88.9987 28.972 88.2361 29.3848 87.2954 29.3848C86.3547 29.3848 85.5921 28.972 85.5921 28.4629C85.5921 27.9538 86.3547 27.541 87.2954 27.541C88.2361 27.541 88.9987 27.9538 88.9987 28.4629Z" fill="#A9A9A9" />
  <path d="M22.782 31.9199C22.782 32.4291 22.0194 32.8418 21.0786 32.8418C20.1379 32.8418 19.3753 32.4291 19.3753 31.9199C19.3753 31.4108 20.1379 30.998 21.0786 30.998C22.0194 30.998 22.782 31.4108 22.782 31.9199Z" fill="#A9A9A9" />
  <path d="M28.1049 34.2822C28.1049 35.0778 26.9133 35.7227 25.4434 35.7227C23.9736 35.7227 22.782 35.0778 22.782 34.2822C22.782 33.4867 23.9736 32.8418 25.4434 32.8418C26.9133 32.8418 28.1049 33.4867 28.1049 34.2822Z" fill="#787878" />
  <ellipse cx="31.4051" cy="37.5088" rx="3.30019" ry="1.78613" fill="#515151" />
  <path d="M103.334 47.8607C103.334 48.6341 103.063 49.2914 102.522 49.8327C102.019 50.3741 101.362 50.6447 100.55 50.6447C99.7766 50.6447 99.1193 50.3741 98.5779 49.8327C98.0753 49.2914 97.8239 48.6341 97.8239 47.8607V22.7467C97.8239 21.9734 98.0753 21.3161 98.5779 20.7747C99.1193 20.2334 99.7766 19.9627 100.55 19.9627C101.362 19.9627 102.019 20.2334 102.522 20.7747C103.063 21.3161 103.334 21.9734 103.334 22.7467V47.8607ZM100.55 16.1347C99.4286 16.1347 98.6166 15.9414 98.1139 15.5547C97.6499 15.1294 97.4179 14.4721 97.4179 13.5827V12.6547C97.4179 11.7267 97.6693 11.0694 98.1719 10.6827C98.7133 10.2961 99.5253 10.1027 100.608 10.1027C101.691 10.1027 102.464 10.3154 102.928 10.7407C103.431 11.1274 103.682 11.7654 103.682 12.6547V13.5827C103.682 14.5107 103.431 15.1681 102.928 15.5547C102.425 15.9414 101.633 16.1347 100.55 16.1347ZM136.659 19.8467C137.471 19.8467 138.128 20.1174 138.631 20.6587C139.172 21.1614 139.443 21.8381 139.443 22.6887V48.2087C139.443 51.3407 138.766 53.9507 137.413 56.0387C136.098 58.1654 134.3 59.7314 132.019 60.7367C129.737 61.7421 127.166 62.2447 124.305 62.2447C122.758 62.2447 120.941 61.9741 118.853 61.4327C116.803 60.8914 115.489 60.3307 114.909 59.7507C113.71 59.1321 113.111 58.3587 113.111 57.4307C113.111 57.1987 113.188 56.8894 113.343 56.5027C113.768 55.5361 114.483 55.0527 115.489 55.0527C115.991 55.0527 116.533 55.1687 117.113 55.4007C120.206 56.5994 122.623 57.1987 124.363 57.1987C127.456 57.1987 129.815 56.4447 131.439 54.9367C133.101 53.4674 133.933 51.4374 133.933 48.8467V45.7147C133.121 47.2227 131.748 48.5181 129.815 49.6007C127.92 50.6834 125.909 51.2247 123.783 51.2247C121.115 51.2247 118.679 50.5481 116.475 49.1947C114.271 47.8414 112.531 45.9661 111.255 43.5687C110.017 41.1327 109.399 38.4067 109.399 35.3907C109.399 32.3747 110.017 29.6681 111.255 27.2707C112.531 24.8347 114.251 22.9401 116.417 21.5867C118.621 20.2334 121.037 19.5567 123.667 19.5567C125.793 19.5567 127.765 20.0401 129.583 21.0067C131.439 21.9734 132.889 23.1527 133.933 24.5447V22.6887C133.933 21.8767 134.184 21.2001 134.687 20.6587C135.189 20.1174 135.847 19.8467 136.659 19.8467ZM124.421 46.1207C126.315 46.1207 127.997 45.6761 129.467 44.7867C130.936 43.8587 132.077 42.5827 132.889 40.9587C133.739 39.2961 134.165 37.4401 134.165 35.3907C134.165 33.3414 133.739 31.5047 132.889 29.8807C132.077 28.2567 130.936 26.9807 129.467 26.0527C127.997 25.1247 126.315 24.6607 124.421 24.6607C122.565 24.6607 120.902 25.1247 119.433 26.0527C117.963 26.9807 116.803 28.2761 115.953 29.9387C115.141 31.5627 114.735 33.3801 114.735 35.3907C114.735 37.4014 115.141 39.2381 115.953 40.9007C116.803 42.5247 117.963 43.8007 119.433 44.7287C120.902 45.6567 122.565 46.1207 124.421 46.1207ZM163.104 19.5567C170.064 19.5567 173.544 23.7327 173.544 32.0847V47.8607C173.544 48.6341 173.273 49.2914 172.732 49.8327C172.229 50.3741 171.572 50.6447 170.76 50.6447C169.987 50.6447 169.329 50.3741 168.788 49.8327C168.285 49.2914 168.034 48.6341 168.034 47.8607V32.1427C168.034 29.8614 167.512 28.0441 166.468 26.6907C165.424 25.3374 163.723 24.6607 161.364 24.6607C159.817 24.6607 158.406 25.0087 157.13 25.7047C155.892 26.3621 154.906 27.2707 154.172 28.4307C153.476 29.5521 153.128 30.7894 153.128 32.1427V47.8607C153.128 48.6341 152.857 49.2914 152.316 49.8327C151.813 50.3741 151.156 50.6447 150.344 50.6447C149.532 50.6447 148.874 50.3934 148.372 49.8907C147.869 49.3494 147.618 48.6727 147.618 47.8607V23.0367C147.618 22.2634 147.869 21.6061 148.372 21.0647C148.913 20.5234 149.57 20.2527 150.344 20.2527C151.156 20.2527 151.813 20.5234 152.316 21.0647C152.857 21.6061 153.128 22.2634 153.128 23.0367V25.0667C154.133 23.5201 155.525 22.2247 157.304 21.1807C159.121 20.0981 161.055 19.5567 163.104 19.5567ZM186.992 47.8607C186.992 48.6341 186.721 49.2914 186.18 49.8327C185.677 50.3741 185.02 50.6447 184.208 50.6447C183.435 50.6447 182.777 50.3741 182.236 49.8327C181.733 49.2914 181.482 48.6341 181.482 47.8607V22.7467C181.482 21.9734 181.733 21.3161 182.236 20.7747C182.777 20.2334 183.435 19.9627 184.208 19.9627C185.02 19.9627 185.677 20.2334 186.18 20.7747C186.721 21.3161 186.992 21.9734 186.992 22.7467V47.8607ZM184.208 16.1347C183.087 16.1347 182.275 15.9414 181.772 15.5547C181.308 15.1294 181.076 14.4721 181.076 13.5827V12.6547C181.076 11.7267 181.327 11.0694 181.83 10.6827C182.371 10.2961 183.183 10.1027 184.266 10.1027C185.349 10.1027 186.122 10.3154 186.586 10.7407C187.089 11.1274 187.34 11.7654 187.34 12.6547V13.5827C187.34 14.5107 187.089 15.1681 186.586 15.5547C186.083 15.9414 185.291 16.1347 184.208 16.1347ZM207.905 12.7127C206.629 12.7127 205.681 13.0994 205.063 13.8727C204.483 14.6461 204.193 15.5934 204.193 16.7147V20.7747H209.935C210.708 20.7747 211.327 21.0261 211.791 21.5287C212.293 21.9927 212.545 22.5921 212.545 23.3267C212.545 24.0614 212.293 24.6607 211.791 25.1247C211.327 25.5887 210.708 25.8207 209.935 25.8207H204.193V47.8607C204.193 48.6341 203.922 49.2914 203.381 49.8327C202.878 50.3741 202.221 50.6447 201.409 50.6447C200.635 50.6447 199.978 50.3741 199.437 49.8327C198.934 49.2914 198.683 48.6341 198.683 47.8607V25.8207H195.087C194.352 25.8207 193.733 25.5887 193.231 25.1247C192.728 24.6607 192.477 24.0614 192.477 23.3267C192.477 22.5921 192.728 21.9927 193.231 21.5287C193.733 21.0261 194.352 20.7747 195.087 20.7747H198.683V16.7147C198.683 14.0081 199.553 11.8621 201.293 10.2767C203.033 8.65274 205.488 7.84074 208.659 7.84074C209.973 7.84074 211.133 8.09208 212.139 8.59474C213.144 9.05874 213.647 9.77408 213.647 10.7407C213.647 11.4754 213.415 12.0941 212.951 12.5967C212.525 13.0607 212.003 13.2927 211.385 13.2927C211.23 13.2927 210.805 13.2154 210.109 13.0607C209.258 12.8287 208.523 12.7127 207.905 12.7127ZM240.132 19.9627C240.944 19.9627 241.602 20.2334 242.104 20.7747C242.646 21.3161 242.916 21.9734 242.916 22.7467V47.8027C242.916 52.6361 241.582 56.2514 238.914 58.6487C236.246 61.0461 232.728 62.2447 228.358 62.2447C226.928 62.2447 225.516 62.1094 224.124 61.8387C222.732 61.5681 221.592 61.2007 220.702 60.7367C219.272 60.0794 218.556 59.1901 218.556 58.0687C218.556 57.8754 218.595 57.6241 218.672 57.3147C218.904 56.6574 219.233 56.1547 219.658 55.8067C220.084 55.4587 220.567 55.2847 221.108 55.2847C221.418 55.2847 221.708 55.3427 221.978 55.4587C223.177 56.0001 224.24 56.4254 225.168 56.7347C226.096 57.0441 227.179 57.1987 228.416 57.1987C234.41 57.1987 237.406 54.1247 237.406 47.9767V46.8167C236.362 48.2087 235.009 49.2914 233.346 50.0647C231.722 50.8381 229.847 51.2247 227.72 51.2247C224.511 51.2247 221.998 50.2001 220.18 48.1507C218.402 46.1014 217.512 43.4141 217.512 40.0887V22.7467C217.512 21.9347 217.764 21.2774 218.266 20.7747C218.769 20.2334 219.426 19.9627 220.238 19.9627C221.05 19.9627 221.708 20.2334 222.21 20.7747C222.752 21.3161 223.022 21.9734 223.022 22.7467V38.6387C223.022 41.1907 223.583 43.0854 224.704 44.3227C225.826 45.5214 227.527 46.1207 229.808 46.1207C232.012 46.1207 233.83 45.4247 235.26 44.0327C236.691 42.6407 237.406 40.8427 237.406 38.6387V22.7467C237.406 21.9347 237.658 21.2774 238.16 20.7747C238.663 20.2334 239.32 19.9627 240.132 19.9627Z" fill="white" />
</svg>