<svg width="315" height="51" viewBox="0 0 315 51" fill="none" xmlns="http://www.w3.org/2000/svg">
  <path d="M51.8361 42.7994C49.6948 42.7994 47.8028 42.506 46.1601 41.9194C44.5175 41.3034 42.9481 40.3207 41.4521 38.9714C40.8361 38.4434 40.5281 37.842 40.5281 37.1674C40.5281 36.6394 40.7335 36.17 41.1441 35.7594C41.5548 35.3194 42.0388 35.0994 42.5961 35.0994C43.0948 35.0994 43.5201 35.2607 43.8721 35.5834C45.0455 36.6687 46.2481 37.4754 47.4801 38.0034C48.7415 38.502 50.1641 38.7514 51.7481 38.7514C53.5961 38.7514 55.1508 38.326 56.4121 37.4754C57.7028 36.6247 58.3481 35.554 58.3481 34.2634C58.3188 32.738 57.6735 31.5647 56.4121 30.7434C55.1801 29.8927 53.2881 29.1887 50.7361 28.6314C47.7148 28.0154 45.3828 27.0034 43.7401 25.5954C42.1268 24.1874 41.3201 22.2367 41.3201 19.7434C41.3201 18.0127 41.7748 16.502 42.6841 15.2114C43.5935 13.8914 44.8548 12.8794 46.4681 12.1754C48.0815 11.4714 49.9001 11.1194 51.9241 11.1194C53.7428 11.1194 55.4588 11.4127 57.0721 11.9994C58.6855 12.586 59.9908 13.3634 60.9881 14.3314C61.6628 14.918 62.0001 15.5487 62.0001 16.2234C62.0001 16.7514 61.7948 17.2207 61.3841 17.6314C61.0028 18.042 60.5335 18.2474 59.9761 18.2474C59.5655 18.2474 59.2281 18.13 58.9641 17.8954C58.2015 17.1327 57.1455 16.4874 55.7961 15.9594C54.4468 15.4314 53.1561 15.1674 51.9241 15.1674C49.9588 15.1674 48.3895 15.578 47.2161 16.3994C46.0721 17.1914 45.5001 18.2474 45.5001 19.5674C45.5001 21.0047 46.0721 22.1047 47.2161 22.8674C48.3895 23.63 50.1201 24.2754 52.4081 24.8034C54.6961 25.302 56.5588 25.8887 57.9961 26.5634C59.4628 27.238 60.5921 28.1767 61.3841 29.3794C62.1761 30.582 62.5721 32.1514 62.5721 34.0874C62.5721 35.7887 62.0881 37.2994 61.1201 38.6194C60.1815 39.9394 58.8908 40.966 57.2481 41.6994C55.6055 42.4327 53.8015 42.7994 51.8361 42.7994Z" fill="white" />
  <path d="M75.9303 19.7725C75.9303 20.6252 74.5326 21.3164 72.8085 21.3164C71.0844 21.3164 69.6867 20.6252 69.6867 19.7725C69.6867 18.9198 71.0844 18.2285 72.8085 18.2285C74.5326 18.2285 75.9303 18.9198 75.9303 19.7725Z" fill="#515151" />
  <path d="M80.9655 22.5615C80.9655 23.2492 79.8383 23.8066 78.4479 23.8066C77.0575 23.8066 75.9303 23.2492 75.9303 22.5615C75.9303 21.8739 77.0575 21.3164 78.4479 21.3164C79.8383 21.3164 80.9655 21.8739 80.9655 22.5615Z" fill="#787878" />
  <path d="M84.188 24.6035C84.188 25.0436 83.4666 25.4004 82.5767 25.4004C81.6869 25.4004 80.9655 25.0436 80.9655 24.6035C80.9655 24.1634 81.6869 23.8066 82.5767 23.8066C83.4666 23.8066 84.188 24.1634 84.188 24.6035Z" fill="#A9A9A9" />
  <path d="M21.5505 27.5918C21.5505 28.0319 20.8291 28.3887 19.9393 28.3887C19.0494 28.3887 18.328 28.0319 18.328 27.5918C18.328 27.1517 19.0494 26.7949 19.9393 26.7949C20.8291 26.7949 21.5505 27.1517 21.5505 27.5918Z" fill="#A9A9A9" />
  <path d="M26.5857 29.6338C26.5857 30.3214 25.4585 30.8789 24.0681 30.8789C22.6777 30.8789 21.5505 30.3214 21.5505 29.6338C21.5505 28.9461 22.6777 28.3887 24.0681 28.3887C25.4585 28.3887 26.5857 28.9461 26.5857 29.6338Z" fill="#787878" />
  <ellipse cx="29.7075" cy="32.4229" rx="3.1218" ry="1.54395" fill="#515151" />
  <path d="M92.3655 39.2609C92.3655 39.8476 92.1602 40.3462 91.7495 40.7569C91.3682 41.1676 90.8695 41.3729 90.2535 41.3729C89.6668 41.3729 89.1682 41.1676 88.7575 40.7569C88.3762 40.3462 88.1855 39.8476 88.1855 39.2609V20.2089C88.1855 19.6222 88.3762 19.1236 88.7575 18.7129C89.1682 18.3022 89.6668 18.0969 90.2535 18.0969C90.8695 18.0969 91.3682 18.3022 91.7495 18.7129C92.1602 19.1236 92.3655 19.6222 92.3655 20.2089V39.2609ZM90.2535 15.1929C89.4028 15.1929 88.7868 15.0462 88.4055 14.7529C88.0535 14.4302 87.8775 13.9316 87.8775 13.2569V12.5529C87.8775 11.8489 88.0682 11.3502 88.4495 11.0569C88.8602 10.7636 89.4762 10.6169 90.2975 10.6169C91.1188 10.6169 91.7055 10.7782 92.0575 11.1009C92.4388 11.3942 92.6295 11.8782 92.6295 12.5529V13.2569C92.6295 13.9609 92.4388 14.4596 92.0575 14.7529C91.6762 15.0462 91.0748 15.1929 90.2535 15.1929ZM117.646 18.0089C118.262 18.0089 118.761 18.2142 119.142 18.6249C119.553 19.0062 119.758 19.5196 119.758 20.1649V39.5249C119.758 41.9009 119.245 43.8809 118.218 45.4649C117.221 47.0782 115.857 48.2662 114.126 49.0289C112.396 49.7916 110.445 50.1729 108.274 50.1729C107.101 50.1729 105.722 49.9676 104.138 49.5569C102.584 49.1462 101.586 48.7209 101.146 48.2809C100.237 47.8116 99.7823 47.2249 99.7823 46.5209C99.7823 46.3449 99.8409 46.1102 99.9583 45.8169C100.281 45.0836 100.824 44.7169 101.586 44.7169C101.968 44.7169 102.378 44.8049 102.818 44.9809C105.165 45.8902 106.998 46.3449 108.318 46.3449C110.665 46.3449 112.454 45.7729 113.686 44.6289C114.948 43.5142 115.578 41.9742 115.578 40.0089V37.6329C114.962 38.7769 113.921 39.7596 112.454 40.5809C111.017 41.4022 109.492 41.8129 107.878 41.8129C105.854 41.8129 104.006 41.2996 102.334 40.2729C100.662 39.2462 99.3423 37.8236 98.3743 36.0049C97.4356 34.1569 96.9663 32.0889 96.9663 29.8009C96.9663 27.5129 97.4356 25.4596 98.3743 23.6409C99.3423 21.7929 100.648 20.3556 102.29 19.3289C103.962 18.3022 105.796 17.7889 107.79 17.7889C109.404 17.7889 110.9 18.1556 112.278 18.8889C113.686 19.6222 114.786 20.5169 115.578 21.5729V20.1649C115.578 19.5489 115.769 19.0356 116.15 18.6249C116.532 18.2142 117.03 18.0089 117.646 18.0089ZM108.362 37.9409C109.8 37.9409 111.076 37.6036 112.19 36.9289C113.305 36.2249 114.17 35.2569 114.786 34.0249C115.432 32.7636 115.754 31.3556 115.754 29.8009C115.754 28.2462 115.432 26.8529 114.786 25.6209C114.17 24.3889 113.305 23.4209 112.19 22.7169C111.076 22.0129 109.8 21.6609 108.362 21.6609C106.954 21.6609 105.693 22.0129 104.578 22.7169C103.464 23.4209 102.584 24.4036 101.938 25.6649C101.322 26.8969 101.014 28.2756 101.014 29.8009C101.014 31.3262 101.322 32.7196 101.938 33.9809C102.584 35.2129 103.464 36.1809 104.578 36.8849C105.693 37.5889 106.954 37.9409 108.362 37.9409ZM137.708 17.7889C142.988 17.7889 145.628 20.9569 145.628 27.2929V39.2609C145.628 39.8476 145.423 40.3462 145.012 40.7569C144.631 41.1676 144.132 41.3729 143.516 41.3729C142.93 41.3729 142.431 41.1676 142.02 40.7569C141.639 40.3462 141.448 39.8476 141.448 39.2609V27.3369C141.448 25.6062 141.052 24.2276 140.26 23.2009C139.468 22.1742 138.178 21.6609 136.388 21.6609C135.215 21.6609 134.144 21.9249 133.176 22.4529C132.238 22.9516 131.49 23.6409 130.932 24.5209C130.404 25.3716 130.14 26.3102 130.14 27.3369V39.2609C130.14 39.8476 129.935 40.3462 129.524 40.7569C129.143 41.1676 128.644 41.3729 128.028 41.3729C127.412 41.3729 126.914 41.1822 126.532 40.8009C126.151 40.3902 125.96 39.8769 125.96 39.2609V20.4289C125.96 19.8422 126.151 19.3436 126.532 18.9329C126.943 18.5222 127.442 18.3169 128.028 18.3169C128.644 18.3169 129.143 18.5222 129.524 18.9329C129.935 19.3436 130.14 19.8422 130.14 20.4289V21.9689C130.903 20.7956 131.959 19.8129 133.308 19.0209C134.687 18.1996 136.154 17.7889 137.708 17.7889ZM155.83 39.2609C155.83 39.8476 155.625 40.3462 155.214 40.7569C154.833 41.1676 154.334 41.3729 153.718 41.3729C153.132 41.3729 152.633 41.1676 152.222 40.7569C151.841 40.3462 151.65 39.8476 151.65 39.2609V20.2089C151.65 19.6222 151.841 19.1236 152.222 18.7129C152.633 18.3022 153.132 18.0969 153.718 18.0969C154.334 18.0969 154.833 18.3022 155.214 18.7129C155.625 19.1236 155.83 19.6222 155.83 20.2089V39.2609ZM153.718 15.1929C152.868 15.1929 152.252 15.0462 151.87 14.7529C151.518 14.4302 151.342 13.9316 151.342 13.2569V12.5529C151.342 11.8489 151.533 11.3502 151.914 11.0569C152.325 10.7636 152.941 10.6169 153.762 10.6169C154.584 10.6169 155.17 10.7782 155.522 11.1009C155.904 11.3942 156.094 11.8782 156.094 12.5529V13.2569C156.094 13.9609 155.904 14.4596 155.522 14.7529C155.141 15.0462 154.54 15.1929 153.718 15.1929ZM171.695 12.5969C170.727 12.5969 170.008 12.8902 169.539 13.4769C169.099 14.0636 168.879 14.7822 168.879 15.6329V18.7129H173.235C173.822 18.7129 174.291 18.9036 174.643 19.2849C175.024 19.6369 175.215 20.0916 175.215 20.6489C175.215 21.2062 175.024 21.6609 174.643 22.0129C174.291 22.3649 173.822 22.5409 173.235 22.5409H168.879V39.2609C168.879 39.8476 168.674 40.3462 168.263 40.7569C167.882 41.1676 167.383 41.3729 166.767 41.3729C166.18 41.3729 165.682 41.1676 165.271 40.7569C164.89 40.3462 164.699 39.8476 164.699 39.2609V22.5409H161.971C161.414 22.5409 160.944 22.3649 160.563 22.0129C160.182 21.6609 159.991 21.2062 159.991 20.6489C159.991 20.0916 160.182 19.6369 160.563 19.2849C160.944 18.9036 161.414 18.7129 161.971 18.7129H164.699V15.6329C164.699 13.5796 165.359 11.9516 166.679 10.7489C167.999 9.51689 169.862 8.90089 172.267 8.90089C173.264 8.90089 174.144 9.09156 174.907 9.47289C175.67 9.82489 176.051 10.3676 176.051 11.1009C176.051 11.6582 175.875 12.1276 175.523 12.5089C175.2 12.8609 174.804 13.0369 174.335 13.0369C174.218 13.0369 173.895 12.9782 173.367 12.8609C172.722 12.6849 172.164 12.5969 171.695 12.5969ZM196.144 18.0969C196.76 18.0969 197.258 18.3022 197.64 18.7129C198.05 19.1236 198.256 19.6222 198.256 20.2089V39.2169C198.256 42.8836 197.244 45.6262 195.22 47.4449C193.196 49.2636 190.526 50.1729 187.212 50.1729C186.126 50.1729 185.056 50.0702 184 49.8649C182.944 49.6596 182.078 49.3809 181.404 49.0289C180.318 48.5302 179.776 47.8556 179.776 47.0049C179.776 46.8582 179.805 46.6676 179.864 46.4329C180.04 45.9342 180.289 45.5529 180.612 45.2889C180.934 45.0249 181.301 44.8929 181.712 44.8929C181.946 44.8929 182.166 44.9369 182.372 45.0249C183.281 45.4356 184.088 45.7582 184.792 45.9929C185.496 46.2276 186.317 46.3449 187.256 46.3449C191.802 46.3449 194.076 44.0129 194.076 39.3489V38.4689C193.284 39.5249 192.257 40.3462 190.996 40.9329C189.764 41.5196 188.341 41.8129 186.728 41.8129C184.293 41.8129 182.386 41.0356 181.008 39.4809C179.658 37.9262 178.984 35.8876 178.984 33.3649V20.2089C178.984 19.5929 179.174 19.0942 179.556 18.7129C179.937 18.3022 180.436 18.0969 181.052 18.0969C181.668 18.0969 182.166 18.3022 182.548 18.7129C182.958 19.1236 183.164 19.6222 183.164 20.2089V32.2649C183.164 34.2009 183.589 35.6382 184.44 36.5769C185.29 37.4862 186.581 37.9409 188.312 37.9409C189.984 37.9409 191.362 37.4129 192.448 36.3569C193.533 35.3009 194.076 33.9369 194.076 32.2649V20.2089C194.076 19.5929 194.266 19.0942 194.648 18.7129C195.029 18.3022 195.528 18.0969 196.144 18.0969Z" fill="white" />
</svg>
